<svg xmlns="http://www.w3.org/2000/svg" viewBox="0 0 64 64">
  <rect width="64" height="64" rx="14" fill="#ffffff"/>
  <rect x="3" y="3" width="58" height="58" rx="11" fill="none" stroke="#d8dde2" stroke-width="2"/>
  <path d="M18 46V18h14.6c8 0 12.4 4 12.4 10.5 0 5.1-2.7 8.5-7.5 9.9L46 46h-6.2l-7.6-7.1h-8.6V46Zm5.4-12h8.1c5 0 7.8-1.8 7.8-5.4 0-3.8-2.5-5.5-7.6-5.5h-8.3Z" fill="#1a1a1a"/>
  <path d="M46 46H40.1L37.6 39H25.4l2.2-4.8h8.4l-4.8-13.3L23.3 46h-5.8l10.7-28h7.2Z" fill="#8b9dad"/>
</svg>
